<?xml version="1.0" encoding="UTF-8" standalone="no"?>
<!-- Created with Inkscape (http://www.inkscape.org/) -->

<svg
   xmlns:osb="http://www.openswatchbook.org/uri/2009/osb"
   xmlns:dc="http://purl.org/dc/elements/1.1/"
   xmlns:cc="http://creativecommons.org/ns#"
   xmlns:rdf="http://www.w3.org/1999/02/22-rdf-syntax-ns#"
   xmlns:svg="http://www.w3.org/2000/svg"
   xmlns="http://www.w3.org/2000/svg"
   xmlns:sodipodi="http://sodipodi.sourceforge.net/DTD/sodipodi-0.dtd"
   xmlns:inkscape="http://www.inkscape.org/namespaces/inkscape"
   width="90.72155mm"
   height="55.407925mm"
   viewBox="0 0 321.45433 196.32729"
   id="svg2"
   version="1.1"
   inkscape:version="0.91 r13725"
   sodipodi:docname="logo.svg"
   inkscape:export-filename="/home/joe/Documents/WebDevProg/MyWebsite/img/logo/transparent/normalOnTransparent.png"
   inkscape:export-xdpi="195.9843"
   inkscape:export-ydpi="195.9843">
  <sodipodi:namedview
     id="base"
     pagecolor="#ffffff"
     bordercolor="#666666"
     borderopacity="1.0"
     inkscape:pageopacity="0.0"
     inkscape:pageshadow="2"
     inkscape:zoom="1.4142136"
     inkscape:cx="139.83529"
     inkscape:cy="130.26714"
     inkscape:document-units="px"
     inkscape:current-layer="layer1"
     showgrid="false"
     inkscape:window-width="1280"
     inkscape:window-height="973"
     inkscape:window-x="0"
     inkscape:window-y="0"
     inkscape:window-maximized="1"
     fit-margin-top="0"
     fit-margin-left="0"
     fit-margin-right="0"
     fit-margin-bottom="0" />
  <defs
     id="defs4">
    <inkscape:perspective
       sodipodi:type="inkscape:persp3d"
       inkscape:vp_x="330.00001 : 610.18109 : 1"
       inkscape:vp_y="0 : 999.99998 : 0"
       inkscape:vp_z="1507.0947 : 666.18108 : 1"
       inkscape:persp3d-origin="372.04725 : 350.7874 : 1"
       id="perspective5122" />
    <linearGradient
       id="linearGradient5114"
       osb:paint="solid">
      <stop
         style="stop-color:#205604;stop-opacity:1;"
         offset="0"
         id="stop5116" />
    </linearGradient>
  </defs>
  <metadata
     id="metadata7">
    <rdf:RDF>
      <cc:Work
         rdf:about="">
        <dc:format>image/svg+xml</dc:format>
        <dc:type
           rdf:resource="http://purl.org/dc/dcmitype/StillImage" />
        <dc:title></dc:title>
      </cc:Work>
    </rdf:RDF>
  </metadata>
  <g
     inkscape:label="Layer 1"
     inkscape:groupmode="layer"
     id="layer1"
     transform="translate(-181.13679,-404.69853)">
    <g
       id="g4061"
       transform="translate(-305.81674,6.0216648)" />
    <path
       sodipodi:type="star"
       style="fill:#000000;fill-opacity:1;stroke:none;stroke-width:1.39822435;stroke-miterlimit:4;stroke-dasharray:none;stroke-opacity:1"
       id="path5140"
       sodipodi:sides="4"
       sodipodi:cx="140"
       sodipodi:cy="348.36218"
       sodipodi:r1="108.77959"
       sodipodi:r2="76.918785"
       sodipodi:arg1="1.5707963"
       sodipodi:arg2="2.3561945"
       inkscape:flatsided="true"
       inkscape:rounded="0"
       inkscape:randomized="0"
       d="M 140,457.14177 31.220413,348.36219 140,239.5826 248.77959,348.36218 Z"
       transform="matrix(1.4642406,0,0,0.8942807,136.87028,191.3286)" />
    <path
       style="font-style:normal;font-variant:normal;font-weight:normal;font-stretch:normal;font-size:medium;line-height:125%;font-family:'Arial Black';-inkscape-font-specification:'Arial Black, ';letter-spacing:0px;word-spacing:0px;fill:#ffffff;fill-opacity:1;stroke:none;stroke-width:1;stroke-linecap:butt;stroke-linejoin:miter;stroke-opacity:1"
       d="m 305.832,454.55708 0,49.65821 c 0,4.90723 -0.66015,8.40477 -1.97851,10.49218 -1.00703,1.61124 -2.48405,2.5785 -4.41798,2.92383 0.15078,1.092 0.34139,2.04592 0.59571,2.79297 0.58594,1.7212 1.5752,3.11377 2.9668,4.17578 0.95215,0.6958 2.30664,1.04297 4.06445,1.04297 2.7832,0 4.81592,-1.02539 6.09766,-3.07617 1.31836,-2.08741 1.97851,-5.58496 1.97851,-10.49219 l 0,-49.6582 15.63281,0 0,-0.004 9.31836,-0.0215 -9.31836,-7.82813 0,-0.006 -0.008,0 -24.93164,0 z m 66.78516,0.10352 c -8.38622,0 -14.99609,1.06152 -19.83008,3.18554 -4.79736,2.08741 -8.40332,4.98096 -10.82031,8.67969 -0.7447,1.14569 -1.35941,2.31738 -1.8711,3.50977 l 0,16.66015 c 1.17151,2.64714 2.94645,5.00744 5.33204,7.07618 1.53122,1.33833 3.41108,2.58641 5.62109,3.75 -2.22912,-3.28113 -3.3457,-7.09189 -3.3457,-11.43555 0,-4.13818 1.18994,-8.03906 3.57031,-11.70117 2.41699,-3.69873 6.02295,-6.59228 10.82031,-8.67969 4.83399,-2.12402 11.44386,-3.18555 19.83008,-3.18555 8.03863,0 14.57281,1.17902 19.61719,3.52539 -1.45924,-2.22848 -3.25998,-4.10487 -5.41211,-5.61718 -5.3833,-3.84521 -13.22118,-5.76758 -23.51172,-5.76758 z m 9.16992,22.99414 c 0.22213,0.73974 0.4068,1.52895 0.55273,2.37695 l 0,0.002 0.0996,0 -0.0976,0.006 c -3.6e-4,-0.002 -0.002,-0.004 -0.002,-0.006 l -0.002,0 -0.004,0.002 9.32618,7.85937 -0.1836,-0.98437 -0.17578,-0.73438 -0.25781,-0.90234 -0.18359,-0.54688 -0.23438,-0.61328 -0.40625,-0.91406 -0.66406,-1.15625 -0.5,-0.6875 c 0,0 -0.99072,-1.26262 -1.68945,-1.60938 l 0,-0.002 -0.002,0 0,-0.002 -0.002,-0.006 -0.008,-0.002 c -1.46726,-1.1088 -3.31999,-1.80587 -5.56641,-2.08008 z m -10.83984,4.59961 c -0.14592,0.50003 -0.22852,1.02529 -0.22852,1.58008 0,1.28173 0.60401,2.43554 1.8125,3.46093 1.17188,1.06202 3.95509,2.04932 8.34961,2.96485 10.87647,2.34374 18.6582,4.72556 23.3457,7.14258 0.15168,0.0764 0.29046,0.15869 0.43946,0.23632 -2.14542,-3.19582 -5.38527,-5.89838 -9.7461,-8.0957 -4.6875,-2.417 -12.46923,-4.79884 -23.3457,-7.14258 -0.23016,-0.048 -0.40563,-0.0981 -0.62695,-0.14648 z m -81.15626,22.40039 -23.78515,3.24219 c 0.43946,6.22559 1.86816,11.46093 4.28515,15.70898 2.45361,4.21142 5.91506,7.41601 10.38282,9.61328 0.0267,0.0131 0.0572,0.0241 0.084,0.0371 -0.40599,-0.57765 -0.79806,-1.1695 -1.16016,-1.79101 -2.41699,-4.24805 -3.84569,-9.4834 -4.28515,-15.70899 l 15.8457,-2.16016 c -6.2e-4,-10e-4 -10e-4,-0.003 -0.002,-0.004 l 0.002,0 7.95313,-1.10156 -9.32032,-7.83594 z m 69.25977,3.7832 0,0.002 -19.00195,1.18946 -0.0312,1.15039 -0.0312,0.83594 -0.0234,0.58203 -0.0312,0.60156 -0.0352,0.625 -0.0547,0.89062 -0.0508,0.71875 -0.0469,0.57422 -0.043,0.48828 -0.0469,0.5 -0.0273,0.3086 -0.0742,0.73437 -0.0781,0.67578 -0.125,1.00391 -0.13281,0.9375 -0.0859,0.58594 -0.14062,0.80469 -0.0977,0.53906 -0.0566,0.3164 c 1.41597,2.76705 3.24427,5.27748 5.49219,7.5254 1.64435,1.64436 3.70069,3.03244 6.16406,4.16406 -3.32658,-4.60312 -5.26791,-10.06988 -5.81055,-16.41016 l 17.13281,-1.07226 c -10e-4,-0.002 -0.003,-0.004 -0.004,-0.006 l 0.002,0 6.55469,-0.41016 -9.31641,-7.85547 z m 25.16211,4.55469 c 0.0331,0.27266 0.0508,0.54949 0.0508,0.83008 0,2.19727 -0.97119,4.13769 -2.91211,5.82226 -1.9043,1.64794 -4.63134,2.47266 -8.18359,2.47266 -1.23728,0 -2.39551,-0.11582 -3.48438,-0.33594 0.49499,1.286 1.09227,2.39541 1.80469,3.30664 2.56347,3.25928 6.22559,4.88867 10.98633,4.88867 3.55225,0 6.27929,-0.82471 8.18359,-2.47265 1.94092,-1.68457 2.91211,-3.625 2.91211,-5.82227 0,-2.0874 -0.91503,-3.95557 -2.74609,-5.60351 -1.18535,-1.06682 -3.40015,-2.09564 -6.61133,-3.08594 z"
       id="path4053"
       inkscape:connector-curvature="0" />
  </g>
</svg>
